<svg width="749" height="200" viewBox="0 0 749 200" fill="none" xmlns="http://www.w3.org/2000/svg">
<path d="M589.61 112.755C581.326 98.4065 586.242 80.0588 600.591 71.7745L659.019 38.0409C673.368 29.7566 691.716 34.6729 700 49.0216L733.734 107.45C742.018 121.799 737.102 140.147 722.753 148.431L664.325 182.164C649.976 190.449 631.628 185.533 623.344 171.184L589.61 112.755Z" fill="#1D957F"/>
<rect y="142.807" width="65.7521" height="65.7521" rx="16" transform="rotate(-30 0 142.807)" fill="#1D957F"/>
<path d="M330.024 17.3296C346.028 21.6179 355.525 38.068 351.237 54.072L341.672 89.7691C337.384 105.773 320.934 115.271 304.93 110.982L269.233 101.417C253.229 97.129 243.731 80.6789 248.019 64.6749L257.584 28.9778C261.873 12.9738 278.323 3.47633 294.327 7.76458L330.024 17.3296Z" fill="#1D957F"/>
</svg>
