<svg width="89" height="76" viewBox="0 0 89 76" fill="none" xmlns="http://www.w3.org/2000/svg">
<path d="M24.6215 0.736084C18.2448 0.736084 12.1293 3.33295 7.62035 7.9554C3.11137 12.5778 0.578247 18.8472 0.578247 25.3844C0.578247 27.6251 0.971682 29.8659 1.53998 32.1066H19.3757L24.9275 17.004C26.239 13.4187 31.3973 13.0602 33.0585 17.004L42.1075 41.0696L44.6867 34.7059C45.255 33.227 46.785 32.1066 48.6647 32.1066H87.0465C87.6148 29.8659 88.0082 27.6251 88.0082 25.3844C88.0082 18.8472 85.4751 12.5778 80.9661 7.9554C76.4572 3.33295 70.3417 0.736084 63.965 0.736084C55.834 0.736084 48.6647 4.90388 44.2932 11.2228C39.9217 4.90388 32.7525 0.736084 24.6215 0.736084ZM4.94975 38.8289C3.79035 38.8289 2.67844 39.301 1.85863 40.1415C1.03881 40.9819 0.578247 42.1218 0.578247 43.3104C0.578247 44.499 1.03881 45.6388 1.85863 46.4793C2.67844 47.3197 3.79035 47.7919 4.94975 47.7919H15.6162L39.9217 72.4402C44.2932 76.4735 44.2932 76.4735 48.6647 72.4402L72.9703 47.7919H83.6367C84.7961 47.7919 85.9081 47.3197 86.7279 46.4793C87.5477 45.6388 88.0082 44.499 88.0082 43.3104C88.0082 42.1218 87.5477 40.9819 86.7279 40.1415C85.9081 39.301 84.7961 38.8289 83.6367 38.8289H50.4133L46.3479 49.1363C44.5993 53.6627 39.572 53.0353 37.9546 49.2708L28.993 25.3844L24.7964 35.8263C24.1406 37.5292 22.6543 38.8289 20.6871 38.8289H4.94975Z" fill="#1D957F"/>
</svg>
