<svg width="65" height="73" viewBox="0 0 65 73" fill="none" xmlns="http://www.w3.org/2000/svg">
<path d="M32.2837 0.88916C26.702 0.88916 23.361 1.77531 21.2374 2.88024C20.1742 3.43408 19.4194 4.01562 18.9117 4.61101C18.4014 5.20639 18.0798 6.08147 18.0798 6.08147C17.9964 6.30387 17.941 6.53657 17.915 6.77378L16.501 25.7264C16.4824 25.8427 16.5196 26.031 16.501 26.1584L16.3362 28.0636C16.3207 28.2359 16.3207 28.4092 16.3362 28.5815C16.3362 37.7199 23.5125 45.1969 32.2837 45.1969C41.0548 45.1969 48.2312 37.7199 48.2312 28.5815V28.1495C48.2316 28.1209 48.2316 28.0922 48.2312 28.0636L46.6524 6.77378C46.6263 6.53657 46.5709 6.30387 46.4876 6.08147C46.4876 6.08147 46.166 5.20639 45.6557 4.61101C45.148 4.01285 44.3931 3.43131 43.33 2.88024C41.2063 1.77254 37.8653 0.88916 32.2837 0.88916ZM32.2837 45.1969C14.7414 45.1969 0.388672 53.7981 0.388672 61.5519V72.8892H64.1787V61.5519C64.1787 54.1858 51.2027 46.0719 34.8592 45.2827C34.0019 45.2238 33.1429 45.1951 32.2837 45.1969ZM32.2837 6.42762C37.3337 6.42762 39.8561 7.25839 40.9219 7.81224C41.2781 7.99778 41.3206 8.06978 41.4216 8.15839L42.5007 22.3507C40.0554 22.5058 36.7224 23.043 32.2837 23.043C27.845 23.043 24.5146 22.5058 22.0666 22.3507L23.1458 8.15839C23.2441 8.06978 23.2893 7.99778 23.6454 7.81224C24.7113 7.25839 27.2336 6.42762 32.2837 6.42762ZM30.1228 9.19685V12.4867H26.9678V16.9867H30.1254V20.2738H34.4419V16.9839H37.5995V12.4867H34.4419V9.19685H30.1254H30.1228ZM24.3099 51.4276L31.1222 67.3507H5.70451V61.5519C5.70451 59.4889 12.4822 53.4464 24.3099 51.4276ZM40.2574 51.4276C52.0852 53.4492 58.8628 59.4889 58.8628 61.5519V67.3507H33.4452L40.2574 51.4276Z" fill="#1D957F"/>
</svg>
