<svg width="66" height="73" viewBox="0 0 66 73" fill="none" xmlns="http://www.w3.org/2000/svg">
<path d="M65.145 26.1466H43.715V72.8891H36.5716V51.3156H29.4283V72.8891H22.285V26.1466H0.85498V18.9554H65.145V26.1466ZM33 0.977539C34.8945 0.977539 36.7114 1.73518 38.0511 3.08378C39.3907 4.43238 40.1433 6.26148 40.1433 8.16869C40.1433 10.0759 39.3907 11.905 38.0511 13.2536C36.7114 14.6022 34.8945 15.3598 33 15.3598C31.1055 15.3598 29.2885 14.6022 27.9489 13.2536C26.6092 11.905 25.8566 10.0759 25.8566 8.16869C25.8566 4.1776 29.0354 0.977539 33 0.977539Z" fill="#1D957F"/>
</svg>
